<svg xmlns="http://www.w3.org/2000/svg" version="1.1" xmlns:xlink="http://www.w3.org/1999/xlink" xmlns:svgjs="http://svgjs.dev/svgjs" width="1500" height="1500" viewBox="0 0 1500 1500"><g transform="matrix(1,0,0,1,0,0)"><svg viewBox="0 0 280 280" data-background-color="#ffffff" preserveAspectRatio="xMidYMid meet" height="1500" width="1500" xmlns="http://www.w3.org/2000/svg" xmlns:xlink="http://www.w3.org/1999/xlink"><g id="tight-bounds" transform="matrix(1,0,0,1,0,0)"><svg viewBox="0 0 280 280" height="280" width="280"><g><svg viewBox="0 0 280 280" height="280" width="280"><g><svg viewBox="0 0 280 280" height="280" width="280"><g id="textblocktransform"><svg viewBox="0 0 280 280" height="280" width="280" id="textblock"><g><svg viewBox="0 0 280 280" height="280" width="280"><g transform="matrix(1,0,0,1,57.50420886156945,57.50420886156945)"><svg viewBox="0 0 164.9915822768611 164.9915822768611" height="164.9915822768611" width="164.9915822768611"><g id="icon-0"><circle r="82" cx="82.49579113843055" cy="82.49579113843055" fill="#8b3c7f" data-fill-palette-color="accent"></circle><svg xmlns="http://www.w3.org/2000/svg" xmlns:xlink="http://www.w3.org/1999/xlink" version="1.1" x="24.748737341529164" y="24.74873734152917" viewBox="0 0 100 100" style="enable-background:new 0 0 100 100;" xml:space="preserve" height="115.49410759380275" width="115.49410759380275" class="icon-xg-0" data-fill-palette-color="quaternary" id="xg-0"><g fill="#ffffff" data-fill-palette-color="quaternary"><path d="M74.988 37.5c0 13.807-11.182 25-24.988 25C50 55.604 44.396 50 37.5 50H24.988C12.5 50 0 42.969 0 25 0 6.641 12.5 0 24.988 0H50c12.5 0 24.988 7.745 24.988 25V37.5z" fill="#ffffff" data-fill-palette-color="quaternary"></path></g><path d="M37.5 37.5" fill="#ffffff" data-fill-palette-color="quaternary"></path><path d="M37.5 37.5" fill="#ffffff" data-fill-palette-color="quaternary"></path><g fill="#ffffff" data-fill-palette-color="quaternary"><g fill="#ffffff" data-fill-palette-color="quaternary"><path d="M81.189 38.165C80.822 55.078 66.992 68.75 50 68.75h-6.25V62.5c0-3.448-2.808-6.25-6.25-6.25H25.623c-0.391 1.935-0.635 4.004-0.635 6.25V75c0 13.807 11.205 25 25.012 25 0-6.909 5.604-12.5 12.5-12.5h12.488C87.5 87.5 100 80.469 100 62.5 100 47.211 91.297 40.125 81.189 38.165z" fill="#ffffff" data-fill-palette-color="quaternary"></path></g></g></svg></g></svg></g><g id="text-0"><path d="M10.358 82.073l26.277 9.36-1.24 3.482-12.144-4.326-4.72 13.251 12.144 4.326-1.233 3.463-26.278-9.36 1.234-3.463 11.299 4.025 4.72-13.251-11.299-4.025z" fill="#a437db" data-fill-palette-color="primary"></path><path d="M52.276 69.484v0c-1.758 2.192-3.907 3.401-6.447 3.629-2.541 0.218-5.019-0.641-7.434-2.577v0l-0.505-0.405c-1.606-1.288-2.794-2.743-3.563-4.364-0.769-1.621-1.068-3.27-0.898-4.947 0.171-1.668 0.772-3.144 1.802-4.429v0c1.687-2.104 3.689-3.184 6.008-3.24 2.318-0.056 4.768 0.95 7.348 3.019v0l1.158 0.929-8.781 10.95c1.62 1.239 3.279 1.808 4.978 1.707 1.698-0.111 3.098-0.853 4.199-2.227v0c0.781-0.974 1.244-1.96 1.389-2.959 0.145-0.999 0.093-2.016-0.158-3.051v0l2.674-0.627c0.993 3.018 0.403 5.883-1.77 8.592zM37.501 58.211v0c-0.893 1.114-1.237 2.375-1.03 3.784 0.207 1.409 0.968 2.79 2.284 4.143v0l6.494-8.099-0.21-0.168c-1.466-1.048-2.858-1.543-4.174-1.483-1.312 0.054-2.434 0.662-3.364 1.823z" fill="#a437db" data-fill-palette-color="primary"></path><path d="M59.241 34.07l13.084 9.853-4.853-15.535 3.116-2.151 6.74 24.425c0.898 3.569 0.191 6.151-2.122 7.747v0l-0.586 0.344-1.223 0.542-1.636-2.37 0.832-0.477c0.984-0.679 1.614-1.409 1.891-2.189 0.277-0.78 0.227-1.828-0.147-3.143v0l-0.547-2.177-17.738-12.667z" fill="#a437db" data-fill-palette-color="primary"></path><path d="M135.086 0.076l0.352 3.008-8.905 1.042 2.889 24.697-3.641 0.426-2.89-24.697-8.885 1.039-0.352-3.008z" fill="#a437db" data-fill-palette-color="primary"></path><path d="M163.307 0.619l-1.955 11.035c1.886-1.622 4.065-2.214 6.537-1.776v0c4.316 0.765 6.063 3.583 5.24 8.456v0l-2.389 13.488-3.492-0.619 2.392-13.507c0.248-1.474 0.104-2.622-0.431-3.446-0.537-0.817-1.501-1.349-2.895-1.595v0c-1.131-0.2-2.179-0.076-3.142 0.374-0.963 0.45-1.77 1.123-2.421 2.019v0l-2.577 14.548-3.492-0.619 5.133-28.977z" fill="#a437db" data-fill-palette-color="primary"></path><path d="M195.009 42.637v0c-2.493-1.296-4.099-3.167-4.818-5.614-0.71-2.45-0.352-5.048 1.076-7.794v0l0.299-0.575c0.95-1.827 2.144-3.276 3.583-4.346 1.44-1.071 2.998-1.686 4.677-1.847 1.669-0.158 3.234 0.143 4.695 0.902v0c2.393 1.244 3.843 2.997 4.351 5.259 0.508 2.263 0 4.861-1.525 7.796v0l-0.685 1.318-12.455-6.474c-0.899 1.831-1.133 3.569-0.701 5.216 0.441 1.644 1.442 2.871 3.003 3.683v0c1.108 0.576 2.166 0.838 3.174 0.785 1.008-0.053 1.995-0.303 2.961-0.752v0l1.138 2.5c-2.766 1.564-5.691 1.545-8.773-0.057zM203.18 25.944v0c-1.267-0.659-2.571-0.749-3.913-0.27-1.341 0.478-2.547 1.494-3.616 3.049v0l9.21 4.787 0.124-0.239c0.742-1.643 0.955-3.104 0.639-4.383-0.31-1.276-1.125-2.257-2.444-2.944z" fill="#a437db" data-fill-palette-color="primary"></path><path d="M237.441 48.004l-2.22 2.426c-0.339-0.427-0.738-0.851-1.198-1.273v0c-1.715-1.569-3.546-1.904-5.496-1.005v0l-9.934 10.855-2.616-2.395 13.997-15.293 2.542 2.327-1.576 1.812c2.108-0.582 3.949-0.154 5.521 1.285v0c0.51 0.466 0.836 0.887 0.98 1.261z" fill="#a437db" data-fill-palette-color="primary"></path><path d="M237.729 83.384v0c-1.516-2.365-1.977-4.788-1.381-7.267 0.604-2.478 2.209-4.552 4.815-6.223v0l0.545-0.35c1.733-1.111 3.491-1.772 5.272-1.983 1.782-0.211 3.44 0.031 4.975 0.727 1.526 0.694 2.733 1.735 3.622 3.122v0c1.455 2.27 1.84 4.513 1.154 6.727-0.686 2.215-2.422 4.215-5.207 6v0l-1.249 0.802-7.576-11.817c-1.691 1.14-2.76 2.531-3.206 4.173-0.437 1.645-0.18 3.208 0.77 4.69v0c0.674 1.051 1.461 1.805 2.361 2.261 0.9 0.456 1.881 0.731 2.942 0.824v0l-0.259 2.734c-3.178-0.022-5.704-1.495-7.578-4.42zM253.128 72.98v0c-0.771-1.202-1.857-1.93-3.257-2.184-1.401-0.254-2.953 0.027-4.655 0.842v0l5.602 8.739 0.227-0.145c1.461-1.055 2.374-2.216 2.737-3.482 0.367-1.261 0.149-2.518-0.654-3.77z" fill="#a437db" data-fill-palette-color="primary"></path><path d="M276.836 101.082l-19.022 6.263-1.041-3.024 18.853-6.752zM250.895 105.944v0c0.54-0.186 1.053-0.176 1.537 0.029 0.483 0.199 0.837 0.625 1.062 1.279 0.225 0.653 0.21 1.213-0.044 1.679-0.254 0.467-0.651 0.793-1.191 0.979-0.546 0.188-1.054 0.173-1.522-0.045-0.475-0.216-0.824-0.65-1.049-1.304-0.225-0.653-0.214-1.205 0.031-1.654 0.237-0.454 0.629-0.775 1.175-0.963z" fill="#a437db" data-fill-palette-color="primary"></path><path d="M11.113 143.841c0-1.863 1.51-3.373 3.372-3.372 1.863 0 3.373 1.51 3.373 3.372 0 1.863-1.51 3.373-3.373 3.373-1.863 0-3.373-1.51-3.372-3.373z" fill="#a437db" data-fill-palette-color="primary"></path><path d="M262.166 143.841c0-1.863 1.51-3.373 3.372-3.372 1.863 0 3.373 1.51 3.373 3.372 0 1.863-1.51 3.373-3.373 3.373-1.863 0-3.373-1.51-3.372-3.373z" fill="#a437db" data-fill-palette-color="primary"></path></g><g id="text-1"><path d="M44.833 194.675l-27.676 10.004-1.324-3.663 12.789-4.623-5.046-13.959-12.789 4.622-1.317-3.644 27.676-10.004 1.317 3.644-11.899 4.301 5.046 13.96 11.899-4.301z" fill="#a437db" data-fill-palette-color="primary"></path><path d="M35.773 232.831v0c-1.869-2.298-2.633-4.784-2.292-7.459 0.336-2.671 1.769-5.035 4.298-7.092v0l0.533-0.434c1.68-1.366 3.441-2.269 5.286-2.707 1.848-0.433 3.615-0.376 5.3 0.17 1.69 0.552 3.082 1.5 4.176 2.844v0c1.794 2.205 2.463 4.512 2.008 6.92-0.46 2.403-2.044 4.707-4.755 6.911v0l-1.205 0.981-9.349-11.492c-1.641 1.403-2.593 2.991-2.855 4.763-0.272 1.771 0.179 3.377 1.353 4.82v0c0.834 1.025 1.749 1.724 2.744 2.095 0.996 0.372 2.055 0.542 3.177 0.511v0l0.063 2.902c-3.341 0.355-6.169-0.889-8.482-3.733zM50.686 220.096v0c-0.951-1.17-2.175-1.805-3.67-1.907-1.496-0.102-3.091 0.378-4.787 1.44v0l6.915 8.501 0.225-0.182c1.406-1.281 2.225-2.606 2.455-3.975 0.231-1.369-0.149-2.661-1.138-3.877z" fill="#a437db" data-fill-palette-color="primary"></path><path d="M71.784 236.384l-4.703 16.621 13.434-10.683 3.304 2.247-21.463 15.932c-3.173 2.244-5.986 2.531-8.441 0.862v0l-0.551-0.448-1.002-1.006 1.703-2.505 0.795 0.638c1.049 0.713 2.008 1.057 2.878 1.029 0.875-0.023 1.885-0.469 3.03-1.336v0l1.933-1.372 5.714-22.271z" fill="#a437db" data-fill-palette-color="primary"></path><path d="M140.091 251.85l-0.366 3.177-9.402-1.085-3.006 26.058-3.83-0.442 3.006-26.058-9.382-1.082 0.367-3.177z" fill="#a437db" data-fill-palette-color="primary"></path><path d="M156.53 248.455l2.082 11.641c1.276-2.299 3.221-3.683 5.836-4.151v0c4.544-0.812 7.297 1.343 8.26 6.468v0l2.545 14.229-3.687 0.66-2.548-14.25c-0.29-1.547-0.848-2.631-1.675-3.252-0.832-0.614-1.983-0.789-3.454-0.526v0c-1.196 0.214-2.189 0.719-2.978 1.514-0.788 0.802-1.341 1.765-1.659 2.887v0l2.742 15.338-3.677 0.658-5.464-30.558z" fill="#a437db" data-fill-palette-color="primary"></path><path d="M205.57 264.401v0c-2.625 1.372-5.214 1.623-7.767 0.755-2.549-0.863-4.579-2.74-6.089-5.63v0l-0.319-0.61c-1.003-1.919-1.535-3.825-1.595-5.719-0.055-1.897 0.354-3.617 1.226-5.16 0.878-1.546 2.086-2.72 3.622-3.523v0c2.519-1.317 4.913-1.511 7.182-0.583 2.263 0.931 4.203 2.944 5.821 6.04v0l0.719 1.378-13.129 6.861c1.047 1.888 2.412 3.138 4.096 3.75 1.681 0.62 3.345 0.5 4.993-0.361v0c1.171-0.612 2.039-1.369 2.602-2.271 0.563-0.901 0.942-1.905 1.135-3.01v0l2.857 0.519c-0.32 3.345-2.105 5.866-5.354 7.564zM196.074 247.242v0c-1.336 0.698-2.204 1.77-2.603 3.215-0.399 1.445-0.247 3.104 0.455 4.978v0l9.712-5.075-0.134-0.256c-0.974-1.634-2.109-2.701-3.403-3.201-1.295-0.5-2.637-0.386-4.027 0.339z" fill="#a437db" data-fill-palette-color="primary"></path><path d="M223.258 223.453l2.349 2.563c-0.484 0.308-0.97 0.686-1.46 1.135v0c-1.807 1.656-2.327 3.551-1.56 5.685v0l10.486 11.444-2.754 2.524-14.773-16.123 2.681-2.456 1.746 1.818c-0.413-2.27 0.21-4.165 1.871-5.686v0c0.534-0.489 1.005-0.79 1.414-0.905z" fill="#a437db" data-fill-palette-color="primary"></path><path d="M256.282 216.222v0c-1.602 2.492-3.726 3.992-6.375 4.501-2.642 0.512-5.335-0.113-8.078-1.877v0l-0.578-0.371c-1.821-1.171-3.227-2.564-4.218-4.18-0.987-1.621-1.483-3.318-1.489-5.09-0.002-1.778 0.465-3.396 1.402-4.854v0c1.537-2.391 3.521-3.745 5.951-4.062 2.427-0.311 5.109 0.477 8.048 2.366v0l1.307 0.84-8.009 12.462c1.844 1.122 3.649 1.532 5.414 1.23 1.767-0.293 3.154-1.222 4.16-2.786v0c0.715-1.112 1.093-2.199 1.136-3.26 0.043-1.062-0.125-2.121-0.503-3.178v0l2.739-0.964c1.378 3.065 1.076 6.139-0.907 9.223zM239.536 206.016v0c-0.815 1.268-1.038 2.629-0.67 4.081 0.369 1.453 1.322 2.82 2.86 4.1v0l5.925-9.218-0.243-0.156c-1.655-0.938-3.169-1.303-4.542-1.096-1.373 0.207-2.483 0.97-3.33 2.289z" fill="#a437db" data-fill-palette-color="primary"></path><path d="M242.733 175.049l19.85 7.219-1.113 3.188-20.027-6.711zM267.406 187.949v0c-0.571-0.199-0.99-0.539-1.258-1.019-0.266-0.487-0.279-1.075-0.039-1.765 0.238-0.684 0.614-1.136 1.128-1.358 0.513-0.222 1.056-0.233 1.626-0.035 0.577 0.201 0.988 0.545 1.233 1.032 0.252 0.489 0.258 1.075 0.02 1.758-0.241 0.69-0.61 1.145-1.109 1.365-0.49 0.216-1.024 0.223-1.601 0.022z" fill="#a437db" data-fill-palette-color="primary"></path></g></svg></g></svg></g></svg></g></svg></g><defs></defs></svg><rect width="280" height="280" fill="none" stroke="none" visibility="hidden"></rect></g></svg></g></svg>